<svg xmlns="http://www.w3.org/2000/svg" viewBox="0 0 150 29" width="150" height="29"><title>logo-final-02-ai</title><style>		.s0 { fill: #ffffff } 		.s1 { fill: #009ddc } 	</style><g id="Layer 1"><g id="&lt;Group&gt;"><path id="&lt;Path&gt;" class="s0" d="m20 8.3h1.7c0.6 0 1 0.3 1 0.9v18.4c0 0.6-0.4 0.9-1 0.9h-1.7c-0.6 0-0.9-0.3-0.9-0.9v-18.4c0-0.6 0.3-0.9 0.9-0.9z"></path><path id="&lt;Compound Path&gt;" class="s0" d="m36.1 11.1q-0.6-0.1-1.1-0.1c-3.1 0-6 2.7-6 6.3v10.3c0 0.6-0.3 0.9-0.9 0.9h-1.7c-0.6 0-1-0.3-1-0.9v-18.4c0-0.6 0.4-0.9 1-0.9h1.7c0.6 0 0.9 0.3 0.9 0.9v2.2c1.3-2 3.8-3.6 6.6-3.6q0.5 0 0.8 0c0.7 0.1 0.9 0.5 0.9 1.1l-0.1 1.4c-0.1 0.6-0.5 0.9-1.1 0.8z"></path><path id="&lt;Compound Path&gt;" class="s0" d="m42.7 28.5h-1.7c-0.6 0-0.9-0.3-0.9-0.9v-18.4c0-0.6 0.3-0.9 0.9-0.9h1.7c0.6 0 0.9 0.3 0.9 0.9v2.1c1.5-2.1 3.7-3.5 6.2-3.5 3.1 0 5.7 1.6 7 4.3 1.3-2.5 3.9-4.3 7-4.3 4.4 0 7.8 3.2 7.8 8.3v11.5c0 0.6-0.4 0.9-1 0.9h-1.7c-0.6 0-0.9-0.3-0.9-0.9v-11.3c0-3.2-2-5.3-4.9-5.3-2.6 0-5.5 2.7-5.5 6.3v10.3c0 0.6-0.3 0.9-0.9 0.9h-1.7c-0.6 0-1-0.3-1-0.9v-11.3c0-3.2-1.9-5.3-4.9-5.3-2.5 0-5.5 2.7-5.5 6.3v10.3c0 0.6-0.3 0.9-0.9 0.9z"></path><path id="&lt;Compound Path&gt;" fill-rule="evenodd" class="s0" d="m84 7.8c3.1 0 5.8 1.4 7.6 3.6v-2.2c0-0.6 0.3-0.9 0.9-0.9h1.7c0.6 0 0.9 0.3 0.9 0.9v18.4c0 0.6-0.3 0.9-0.9 0.9h-1.7c-0.6 0-0.9-0.3-0.9-0.9v-2.1c-1.8 2.1-4.5 3.5-7.6 3.5-5.8 0-10.1-4.7-10.1-10.6 0-5.9 4.3-10.6 10.1-10.6zm0.6 18c4 0 7-3.3 7-7.4 0-4.1-2.9-7.4-7-7.4-4.1 0-7 3.3-7 7.4 0 4.1 3 7.4 7 7.4z"></path><path id="&lt;Compound Path&gt;" fill-rule="evenodd" class="s0" d="m109.6 29c-3.1 0-5.8-1.4-7.6-3.5v2.1c0 0.6-0.3 0.9-0.9 0.9h-1.7c-0.6 0-0.9-0.3-0.9-0.9v-26.7c0-0.6 0.3-0.9 0.9-0.9h1.7c0.6 0 0.9 0.3 0.9 0.9v10.5c1.8-2.2 4.5-3.6 7.6-3.6 5.8 0 10.1 4.7 10.1 10.6 0 5.9-4.3 10.6-10.1 10.6zm-0.6-18c-4.1 0-7 3.3-7 7.4 0 4.1 3 7.4 7 7.4 4 0 7-3.3 7-7.4 0-4.1-2.9-7.4-7-7.4z"></path><path id="&lt;Compound Path&gt;" class="s0" d="m123.4 0h1.7c0.6 0 0.9 0.3 0.9 0.9v26.7c0 0.6-0.3 0.9-0.9 0.9h-1.7c-0.6 0-1-0.3-1-0.9v-26.7c0-0.6 0.4-0.9 1-0.9z"></path><path id="&lt;Compound Path&gt;" fill-rule="evenodd" class="s0" d="m139.8 25.9c2.6 0 4.5-0.8 6.4-2.5q0.6-0.7 1.3-0.1l0.7 0.7c0.5 0.4 0.5 0.9 0.1 1.3-2.1 2.3-4.6 3.7-8.4 3.7-6.6 0-11.1-4.7-11.1-10.6 0-5.9 4.6-10.6 10.8-10.6 6.1 0 10.4 4.6 10.4 10.2q0 0.3 0 0.7c-0.1 0.5-0.5 0.8-1 0.8h-16.5c0.4 3.6 3.4 6.4 7.3 6.4zm-7.2-9.3h13.6c-0.5-3.3-3.2-5.7-6.6-5.7-3.4 0-6.3 2.4-7 5.7z"></path><path id="&lt;Path&gt;" class="s1" d="m19.1 1c0-0.6 0.4-1 1-1h1.6c0.5 0 1 0.4 1 1v1.4c0 0.5-0.5 1-1 1h-1.6c-0.6 0-1-0.5-1-1z"></path><path id="&lt;Path&gt;" class="s1" d="m15.3 12.6h-8.4-3.4-2.2c-0.7 0-1.3 0.6-1.3 1.3v13.8c0 0.4 0.4 0.8 0.9 0.8h1.7c0.5 0 0.9-0.4 0.9-0.8v-11.7h11.8c0.5 0 0.9-0.4 0.9-0.9v-1.6c0-0.5-0.4-0.9-0.9-0.9z"></path><path id="&lt;Path&gt;" class="s1" d="m15.3 0h-14.4c-0.5 0-0.9 0.4-0.9 0.9v1.8c0 0.4 0.3 0.7 0.7 0.7h6.2 8.4c0.5 0 0.9-0.4 0.9-0.9v-1.6c0-0.5-0.4-0.9-0.9-0.9z"></path></g></g></svg>